<?xml version="1.0" standalone="no"?><!DOCTYPE svg PUBLIC "-//W3C//DTD SVG 1.1//EN" "http://www.w3.org/Graphics/SVG/1.1/DTD/svg11.dtd"><svg t="1539490705317" class="icon" style="" viewBox="0 0 1024 1024" version="1.1" xmlns="http://www.w3.org/2000/svg" p-id="8714" xmlns:xlink="http://www.w3.org/1999/xlink" width="200" height="200"><defs><style type="text/css"></style></defs><path d="M960 64v896H64V64z m-64 832V128H128v768z" fill="#305CBC" p-id="8715"></path><path d="M896 128v768H128V128z m-64 688v-64H192v64z m0-160v-64H448v64z m0-336v-48l-32-32h-64v-48h-16l-32 32v32l32 32h64v48h16z m0-80v-48h-80v32h80z m-48 112v-32h-80v32z m-128 0l32-144h-32v144z m0 160v-80H448v64z m-16-176l-32-144h-48l32 144z m-64-64v-80h-96l48 144h48z m-112 64v-32h-64v32z m0-96v-48h-64v32h80z m-32 48v-32h-32v-64h-48v144h48v-48z m-32 368V432H192v224z m-80-336v-128h-32v64z m0 16l-80-144h-48l80 144z m-96 0v-64l-48-64v128z" fill="#A8CEFB" p-id="8716"></path><path d="M192 752h640v64H192zM448 592h384v64H448zM832 272v48l-32 16h-16v-48h-64l-16-32v-32l16-32h16v48h64l32 32z" fill="#305CBC" p-id="8717"></path><path d="M832 224v16h-48v-16h-32v-32h48l32 32zM784 320v16h-64l-16-16v-16h48v16h32zM688 192l-32 144-16-80 16-64h32zM448 432h208v64H448zM608 192l32 144h-32l-48-144h48zM560 208l16 80-16 48h-32l-48-144h48l16 80 16-64zM480 304v32h-80v-16h32v-16h48zM480 192v48h-48v-16h-32v-32h80z" fill="#305CBC" p-id="8718"></path><path d="M448 256v32h-48v48h-48v-144h48v64h48zM400 432v224H192V432z m-64 160v-96h-80v96z" fill="#305CBC" p-id="8719"></path><path d="M256 496h80v96h-80z" fill="#FFFFFF" p-id="8720"></path><path d="M320 192v128l-32-64v-64h32zM240 192l80 144h-48l-80-144h48z" fill="#305CBC" p-id="8721"></path><path d="M240 272v64h-48v-128l48 64z" fill="#305CBC" p-id="8722"></path></svg>