<?xml version="1.0" standalone="no"?><!DOCTYPE svg PUBLIC "-//W3C//DTD SVG 1.1//EN" "http://www.w3.org/Graphics/SVG/1.1/DTD/svg11.dtd"><svg t="1539491330855" class="icon" style="" viewBox="0 0 1024 1024" version="1.1" xmlns="http://www.w3.org/2000/svg" p-id="1232" xmlns:xlink="http://www.w3.org/1999/xlink" width="200" height="200"><defs><style type="text/css"></style></defs><path d="M286.8 114.1c-119.5 0-196.7 69.9-196.7 178 0 91.4 82.2 165.7 183.1 165.7h196.7v-178c0-91.3-82.2-165.7-183.1-165.7z" fill="#FFFFFF" p-id="1233"></path><path d="M286.8 95.8c-129.8 0-217 78.9-217 196.4 0 101.5 91.3 184.1 203.4 184.1h217V279.9c0-101.6-91.3-184.1-203.4-184.1z m183.1 362.1H273.2c-101 0-183.1-74.3-183.1-165.7 0-108.1 77.2-178 196.7-178 101 0 183.1 74.3 183.1 165.7v178zM962.4 292.1c0-117.5-87.2-196.4-217-196.4-112.2 0-203.4 82.6-203.4 184.1v196.4h217c112.1 0 203.4-82.5 203.4-184.1zM739 148.2c100.9 4.4 156.2 61.5 151.6 156.6l-20.3-0.8c4.1-84.8-42.9-133.6-132.3-137.5l1-18.3z m133.6 203.1c-8.3 1.3-16.1-3.8-17.5-11.3-1.4-7.5 4.2-14.6 12.5-15.9 8.3-1.3 16.1 3.8 17.5 11.3 1.4 7.5-4.2 14.6-12.5 15.9z" fill="" p-id="1234"></path><path d="M942 693.3c-0.7-91-82.7-164.5-183.1-164.5h-1.3L560.9 530l1.4 178c0.4 44.3 19.7 85.8 54.6 116.8 34.8 31.1 81 48 129.9 47.7 119.4-0.7 196.1-71.1 195.2-179.2z" fill="#FFFFFF" p-id="1235"></path><path d="M758.9 510.4h-1.5l-217 1.4 1.6 196.4c0.4 49.2 21.9 95.3 60.6 129.8 38.3 34.2 89 53 142.8 53h1.5c64-0.4 118.3-19.4 157-54.9s58.9-84.9 58.4-142.9c-0.8-101.1-91.9-182.8-203.4-182.8z m-142 314.5c-34.8-31.1-54.2-72.6-54.6-116.8l-1.4-178 196.7-1.3h1.3c100.4 0 182.4 73.6 183.1 164.5 0.9 108.1-75.8 178.5-195.3 179.3-48.8 0.3-95-16.6-129.8-47.7zM127.2 559.4c-39.8 33.5-62.8 79-64.9 128.1-2.4 57.9 16.2 107.8 53.7 144.4 37.5 36.5 91.2 57 155.2 59.1 2.5 0.1 5.1 0.1 7.6 0.1C387.6 891.1 478 813 482 713.8l8-196.3-216.9-7.2c-54.2-1.8-106.1 15.6-145.9 49.1z" fill="" p-id="1236"></path><path d="M870.3 304.1l20.3 0.8c4.6-95.2-50.6-152.3-151.6-156.6l-1 18.4c89.4 3.8 136.4 52.6 132.3 137.4zM867.6 324.1c-8.3 1.3-13.9 8.4-12.5 15.9 1.4 7.5 9.2 12.6 17.5 11.3 8.3-1.3 13.9-8.4 12.5-15.9-1.3-7.5-9.2-12.6-17.5-11.3z" fill="#FFFFFF" p-id="1237"></path><path d="M0 0h50v50H0zM974 0h50v50h-50zM974 974h50v50h-50zM0 974h50v50H0z" fill="" p-id="1238"></path></svg>