<?xml version="1.0" standalone="no"?><!DOCTYPE svg PUBLIC "-//W3C//DTD SVG 1.1//EN" "http://www.w3.org/Graphics/SVG/1.1/DTD/svg11.dtd"><svg t="1539485155071" class="icon" style="" viewBox="0 0 1024 1024" version="1.1" xmlns="http://www.w3.org/2000/svg" p-id="4899" xmlns:xlink="http://www.w3.org/1999/xlink" width="200" height="200"><defs><style type="text/css"></style></defs><path d="M849.391 882.306c0 26.816-21.751 48.575-48.583 48.575H183.79c-26.832 0-48.584-21.759-48.584-48.575V173.627c0-26.832 21.752-48.593 48.584-48.593h617.018c26.832 0 48.583 21.761 48.583 48.593v708.679z" fill="#2CA6E0" p-id="4900"></path><path d="M800.808 935.881H183.79c-29.547 0-53.584-24.034-53.584-53.575V173.627c0-29.551 24.038-53.593 53.584-53.593h617.018c29.546 0 53.583 24.042 53.583 53.593v708.679c0 29.541-24.037 53.575-53.583 53.575zM183.79 130.034c-24.033 0-43.584 19.556-43.584 43.593v708.679c0 24.027 19.552 43.575 43.584 43.575h617.018c24.032 0 43.583-19.548 43.583-43.575V173.627c0-24.037-19.551-43.593-43.583-43.593H183.79z" fill="#433F3F" p-id="4901"></path><path d="M700.408 313.392H284.181c-10.304 0-15.528-2.499-15.528-7.427s5.225-7.427 15.528-7.427h416.228c10.304 0 15.528 2.499 15.528 7.427s-5.225 7.427-15.529 7.427zM702.551 430.512H286.324c-10.305 0-15.529-2.499-15.529-7.427 0-4.928 5.225-7.426 15.529-7.426h416.227c10.304 0 15.528 2.499 15.528 7.426 0 4.929-5.224 7.427-15.528 7.427zM701.48 543.784H285.252c-10.304 0-15.528-2.493-15.528-7.411 0-4.939 5.225-7.443 15.528-7.443H701.48c10.304 0 15.528 2.504 15.528 7.443 0 4.918-5.225 7.411-15.528 7.411zM703.621 660.922H287.395c-10.305 0-15.529-2.504-15.529-7.443 0-4.916 5.225-7.409 15.529-7.409h416.226c10.305 0 15.529 2.493 15.529 7.409 0.001 4.939-5.224 7.443-15.529 7.443zM699.437 772.612H283.211c-10.305 0-15.529-2.494-15.529-7.412 0-4.939 5.225-7.443 15.529-7.443h416.226c10.305 0 15.529 2.504 15.529 7.443 0 4.918-5.225 7.412-15.529 7.412z" fill="#433F3F" p-id="4902"></path></svg>